{"extensionsUsed" : ["KHR_materials_transmission"], "accessors" : [{"bufferView" : 0, "byteOffset" : 0, "componentType" : 5123, "count" : 3264, "type" : "SCALAR", "max" : [2751], "min" : [0]}, {"bufferView" : 1, "byteOffset" : 0, "componentType" : 5126, "count" : 2752, "type" : "VEC3", "max" : [1, 1.9934570789337158, 1], "min" : [-1, 0, -1], "name" : "POSITION"}, {"bufferView" : 1, "byteOffset" : 12, "componentType" : 5126, "count" : 2752, "type" : "VEC3", "max" : [0.9987998604774475, 0.9951783418655396, 0.9987998604774475], "min" : [-0.9987998604774475, 0, -0.9987998604774475], "name" : "NORMAL"}, {"bufferView" : 1, "byteOffset" : 24, "componentType" : 5126, "count" : 2752, "type" : "VEC2", "max" : [1.0000001192092896, 0.5], "min" : [0, 0], "name" : "TEXCOORD_0"}, {"bufferView" : 0, "byteOffset" : 6528, "componentType" : 5123, "count" : 36, "type" : "SCALAR", "max" : [29], "min" : [0]}, {"bufferView" : 2, "byteOffset" : 0, "componentType" : 5126, "count" : 30, "type" : "VEC3", "max" : [1, 1, 1], "min" : [-1, -1, -1], "name" : "POSITION"}, {"bufferView" : 2, "byteOffset" : 12, "componentType" : 5126, "count" : 30, "type" : "VEC3", "max" : [1.0000044107437134, 1.0000044107437134, 1.0000044107437134], "min" : [-1.0000044107437134, -1.0000044107437134, -1.0000044107437134], "name" : "NORMAL"}, {"bufferView" : 2, "byteOffset" : 24, "componentType" : 5126, "count" : 30, "type" : "VEC2", "max" : [0.875, 1], "min" : [0.125, 0], "name" : "TEXCOORD_0"}, {"bufferView" : 0, "byteOffset" : 6600, "componentType" : 5123, "count" : 2724, "type" : "SCALAR", "max" : [2260], "min" : [0]}, {"bufferView" : 3, "byteOffset" : 0, "componentType" : 5126, "count" : 2261, "type" : "VEC3", "max" : [1.5033923387527466, -0.1560944765806198, 2.6920700073242188], "min" : [-3.832263231277466, -0.1560944765806198, -2.6646270751953125], "name" : "POSITION"}, {"bufferView" : 3, "byteOffset" : 12, "componentType" : 5126, "count" : 2261, "type" : "VEC3", "max" : [-1.3324513048473818E-08, 1.0000044107437134, -0], "min" : [-1.3324513048473818E-08, 1.0000044107437134, -0], "name" : "NORMAL"}, {"bufferView" : 3, "byteOffset" : 24, "componentType" : 5126, "count" : 2261, "type" : "VEC2", "max" : [0, 1], "min" : [0, 1], "name" : "TEXCOORD_0"}, {"bufferView" : 0, "byteOffset" : 12048, "componentType" : 5123, "count" : 5760, "type" : "SCALAR", "max" : [4863], "min" : [0]}, {"bufferView" : 4, "byteOffset" : 0, "componentType" : 5126, "count" : 4864, "type" : "VEC3", "max" : [0.9999998807907104, 1, 0.9999997615814209], "min" : [-0.9999996423721313, -1, -1], "name" : "POSITION"}, {"bufferView" : 4, "byteOffset" : 12, "componentType" : 5126, "count" : 4864, "type" : "VEC3", "max" : [0.9940018653869629, 0.9951781630516052, 0.9940019845962524], "min" : [-0.994002103805542, -0.9951778650283813, -0.9940018653869629], "name" : "NORMAL"}, {"bufferView" : 4, "byteOffset" : 24, "componentType" : 5126, "count" : 4864, "type" : "VEC2", "max" : [1.0000001192092896, 1], "min" : [0, 0], "name" : "TEXCOORD_0"}, {"bufferView" : 0, "byteOffset" : 23568, "componentType" : 5123, "count" : 5760, "type" : "SCALAR", "max" : [4863], "min" : [0]}, {"bufferView" : 5, "byteOffset" : 0, "componentType" : 5126, "count" : 4864, "type" : "VEC3", "max" : [0.9999998807907104, 1, 0.9999997615814209], "min" : [-0.9999996423721313, -1, -1], "name" : "POSITION"}, {"bufferView" : 5, "byteOffset" : 12, "componentType" : 5126, "count" : 4864, "type" : "VEC3", "max" : [0.9940018653869629, 0.9951781630516052, 0.9940019845962524], "min" : [-0.994002103805542, -0.9951778650283813, -0.9940018653869629], "name" : "NORMAL"}, {"bufferView" : 5, "byteOffset" : 24, "componentType" : 5126, "count" : 4864, "type" : "VEC2", "max" : [1.0000001192092896, 1], "min" : [0, 0], "name" : "TEXCOORD_0"}, {"bufferView" : 0, "byteOffset" : 35088, "componentType" : 5123, "count" : 5760, "type" : "SCALAR", "max" : [4863], "min" : [0]}, {"bufferView" : 6, "byteOffset" : 0, "componentType" : 5126, "count" : 4864, "type" : "VEC3", "max" : [0.9999998807907104, 1, 0.9999997615814209], "min" : [-0.9999996423721313, -1, -1], "name" : "POSITION"}, {"bufferView" : 6, "byteOffset" : 12, "componentType" : 5126, "count" : 4864, "type" : "VEC3", "max" : [0.9940018653869629, 0.9951781630516052, 0.9940019845962524], "min" : [-0.994002103805542, -0.9951778650283813, -0.9940018653869629], "name" : "NORMAL"}, {"bufferView" : 6, "byteOffset" : 24, "componentType" : 5126, "count" : 4864, "type" : "VEC2", "max" : [1.0000001192092896, 1], "min" : [0, 0], "name" : "TEXCOORD_0"}, {"bufferView" : 0, "byteOffset" : 46608, "componentType" : 5123, "count" : 5760, "type" : "SCALAR", "max" : [4863], "min" : [0]}, {"bufferView" : 7, "byteOffset" : 0, "componentType" : 5126, "count" : 4864, "type" : "VEC3", "max" : [0.9999998807907104, 1, 0.9999997615814209], "min" : [-0.9999996423721313, -1, -1], "name" : "POSITION"}, {"bufferView" : 7, "byteOffset" : 12, "componentType" : 5126, "count" : 4864, "type" : "VEC3", "max" : [0.9940018653869629, 0.9951781630516052, 0.9940019845962524], "min" : [-0.994002103805542, -0.9951778650283813, -0.9940018653869629], "name" : "NORMAL"}, {"bufferView" : 7, "byteOffset" : 24, "componentType" : 5126, "count" : 4864, "type" : "VEC2", "max" : [1.0000001192092896, 1], "min" : [0, 0], "name" : "TEXCOORD_0"}, {"bufferView" : 0, "byteOffset" : 58128, "componentType" : 5123, "count" : 5760, "type" : "SCALAR", "max" : [4863], "min" : [0]}, {"bufferView" : 8, "byteOffset" : 0, "componentType" : 5126, "count" : 4864, "type" : "VEC3", "max" : [0.9999998807907104, 1, 0.9999997615814209], "min" : [-0.9999996423721313, -1, -1], "name" : "POSITION"}, {"bufferView" : 8, "byteOffset" : 12, "componentType" : 5126, "count" : 4864, "type" : "VEC3", "max" : [0.9940018653869629, 0.9951781630516052, 0.9940019845962524], "min" : [-0.994002103805542, -0.9951778650283813, -0.9940018653869629], "name" : "NORMAL"}, {"bufferView" : 8, "byteOffset" : 24, "componentType" : 5126, "count" : 4864, "type" : "VEC2", "max" : [1.0000001192092896, 1], "min" : [0, 0], "name" : "TEXCOORD_0"}, {"bufferView" : 0, "byteOffset" : 69648, "componentType" : 5123, "count" : 5760, "type" : "SCALAR", "max" : [4863], "min" : [0]}, {"bufferView" : 9, "byteOffset" : 0, "componentType" : 5126, "count" : 4864, "type" : "VEC3", "max" : [0.9999998807907104, 1, 0.9999997615814209], "min" : [-0.9999996423721313, -1, -1], "name" : "POSITION"}, {"bufferView" : 9, "byteOffset" : 12, "componentType" : 5126, "count" : 4864, "type" : "VEC3", "max" : [0.9940018653869629, 0.9951781630516052, 0.9940019845962524], "min" : [-0.994002103805542, -0.9951778650283813, -0.9940018653869629], "name" : "NORMAL"}, {"bufferView" : 9, "byteOffset" : 24, "componentType" : 5126, "count" : 4864, "type" : "VEC2", "max" : [1.0000001192092896, 1], "min" : [0, 0], "name" : "TEXCOORD_0"}, {"bufferView" : 0, "byteOffset" : 81168, "componentType" : 5123, "count" : 5760, "type" : "SCALAR", "max" : [4863], "min" : [0]}, {"bufferView" : 10, "byteOffset" : 0, "componentType" : 5126, "count" : 4864, "type" : "VEC3", "max" : [0.9999998807907104, 1, 0.9999997615814209], "min" : [-0.9999996423721313, -1, -1], "name" : "POSITION"}, {"bufferView" : 10, "byteOffset" : 12, "componentType" : 5126, "count" : 4864, "type" : "VEC3", "max" : [0.9940018653869629, 0.9951781630516052, 0.9940019845962524], "min" : [-0.994002103805542, -0.9951778650283813, -0.9940018653869629], "name" : "NORMAL"}, {"bufferView" : 10, "byteOffset" : 24, "componentType" : 5126, "count" : 4864, "type" : "VEC2", "max" : [1.0000001192092896, 1], "min" : [0, 0], "name" : "TEXCOORD_0"}, {"bufferView" : 0, "byteOffset" : 92688, "componentType" : 5123, "count" : 6816, "type" : "SCALAR", "max" : [5677], "min" : [0]}, {"bufferView" : 11, "byteOffset" : 0, "componentType" : 5126, "count" : 5678, "type" : "VEC3", "max" : [0.054311495274305344, 6.335519790649414, 0.8160505890846252], "min" : [-0.09359504282474518, -6.542726516723633, -0.826371431350708], "name" : "POSITION"}, {"bufferView" : 11, "byteOffset" : 12, "componentType" : 5126, "count" : 5678, "type" : "VEC3", "max" : [0.9999681711196899, 0.9447566270828247, 0.9995080828666687], "min" : [-0.9999676942825317, -0.9386202692985535, -0.9995107054710388], "name" : "NORMAL"}, {"bufferView" : 11, "byteOffset" : 24, "componentType" : 5126, "count" : 5678, "type" : "VEC2", "max" : [1, 1], "min" : [0, 0], "name" : "TEXCOORD_0"}, {"bufferView" : 0, "byteOffset" : 106320, "componentType" : 5123, "count" : 6816, "type" : "SCALAR", "max" : [5677], "min" : [0]}, {"bufferView" : 12, "byteOffset" : 0, "componentType" : 5126, "count" : 5678, "type" : "VEC3", "max" : [0.05431143939495087, 6.335519790649414, 0.81605064868927], "min" : [-0.09359506517648697, -6.542726993560791, -0.826371431350708], "name" : "POSITION"}, {"bufferView" : 12, "byteOffset" : 12, "componentType" : 5126, "count" : 5678, "type" : "VEC3", "max" : [0.9999687075614929, 0.9447640180587769, 0.9995076060295105], "min" : [-0.9999682307243347, -0.9386234879493713, -0.9995102286338806], "name" : "NORMAL"}, {"bufferView" : 12, "byteOffset" : 24, "componentType" : 5126, "count" : 5678, "type" : "VEC2", "max" : [1, 1], "min" : [0, 0], "name" : "TEXCOORD_0"}], "asset" : {"generator" : "Aspose.3D 22.7", "version" : "2.0"}, "buffers" : [{"uri" : "data:application/octet-stream;base64,", "byteLength" : 2039236}], "bufferViews" : [{"buffer" : 0, "byteOffset" : 0, "byteLength" : 119952, "target" : 34963}, {"buffer" : 0, "byteOffset" : 119956, "byteLength" : 104448, "byteStride" : 32, "target" : 34962}, {"buffer" : 0, "byteOffset" : 224408, "byteLength" : 1152, "byteStride" : 32, "target" : 34962}, {"buffer" : 0, "byteOffset" : 225564, "byteLength" : 87168, "byteStride" : 32, "target" : 34962}, {"buffer" : 0, "byteOffset" : 312736, "byteLength" : 184320, "byteStride" : 32, "target" : 34962}, {"buffer" : 0, "byteOffset" : 497060, "byteLength" : 184320, "byteStride" : 32, "target" : 34962}, {"buffer" : 0, "byteOffset" : 681384, "byteLength" : 184320, "byteStride" : 32, "target" : 34962}, {"buffer" : 0, "byteOffset" : 865708, "byteLength" : 184320, "byteStride" : 32, "target" : 34962}, {"buffer" : 0, "byteOffset" : 1050032, "byteLength" : 184320, "byteStride" : 32, "target" : 34962}, {"buffer" : 0, "byteOffset" : 1234356, "byteLength" : 184320, "byteStride" : 32, "target" : 34962}, {"buffer" : 0, "byteOffset" : 1418680, "byteLength" : 184320, "byteStride" : 32, "target" : 34962}, {"buffer" : 0, "byteOffset" : 1603004, "byteLength" : 218112, "byteStride" : 32, "target" : 34962}, {"buffer" : 0, "byteOffset" : 1821120, "byteLength" : 218112, "byteStride" : 32, "target" : 34962}], "materials" : [{"name" : "Material.001", "pbrMetallicRoughness" : {"baseColorFactor" : [0.8000000715255737, 0.15566645562648773, 0.01028758566826582, 1], "metallicFactor" : 0, "roughnessFactor" : 0.20000000298023224}, "emissiveFactor" : [0, 0, 0], "alphaMode" : "OPAQUE", "doubleSided" : true}, {"name" : "Material.003", "extensions" : {"KHR_materials_transmission" : {"transmissionFactor" : 1}}, "pbrMetallicRoughness" : {"baseColorFactor" : [0.08553756028413773, 0.1867799460887909, 0.8000000715255737, 1], "metallicFactor" : 0, "roughnessFactor" : 0.10000000149011612}, "emissiveFactor" : [0, 0, 0], "alphaMode" : "OPAQUE", "doubleSided" : true}, {"name" : "Material.004", "pbrMetallicRoughness" : {"baseColorFactor" : [0.8000000715255737, 0.006868783384561539, 0.008726012893021107, 1], "metallicFactor" : 0, "roughnessFactor" : 0.5}, "emissiveFactor" : [0, 0, 0], "alphaMode" : "OPAQUE", "doubleSided" : true}, {"name" : "Material.004", "pbrMetallicRoughness" : {"baseColorFactor" : [0.8000000715255737, 0.006868783384561539, 0.008726012893021107, 1], "metallicFactor" : 0, "roughnessFactor" : 0.5}, "emissiveFactor" : [0, 0, 0], "alphaMode" : "OPAQUE", "doubleSided" : true}, {"name" : "Material.004", "pbrMetallicRoughness" : {"baseColorFactor" : [0.8000000715255737, 0.006868783384561539, 0.008726012893021107, 1], "metallicFactor" : 0, "roughnessFactor" : 0.5}, "emissiveFactor" : [0, 0, 0], "alphaMode" : "OPAQUE", "doubleSided" : true}, {"name" : "Material.004", "pbrMetallicRoughness" : {"baseColorFactor" : [0.8000000715255737, 0.006868783384561539, 0.008726012893021107, 1], "metallicFactor" : 0, "roughnessFactor" : 0.5}, "emissiveFactor" : [0, 0, 0], "alphaMode" : "OPAQUE", "doubleSided" : true}, {"name" : "Material.004", "pbrMetallicRoughness" : {"baseColorFactor" : [0.8000000715255737, 0.006868783384561539, 0.008726012893021107, 1], "metallicFactor" : 0, "roughnessFactor" : 0.5}, "emissiveFactor" : [0, 0, 0], "alphaMode" : "OPAQUE", "doubleSided" : true}, {"name" : "Material.004", "pbrMetallicRoughness" : {"baseColorFactor" : [0.8000000715255737, 0.006868783384561539, 0.008726012893021107, 1], "metallicFactor" : 0, "roughnessFactor" : 0.5}, "emissiveFactor" : [0, 0, 0], "alphaMode" : "OPAQUE", "doubleSided" : true}, {"name" : "Material.004", "pbrMetallicRoughness" : {"baseColorFactor" : [0.8000000715255737, 0.006868783384561539, 0.008726012893021107, 1], "metallicFactor" : 0, "roughnessFactor" : 0.5}, "emissiveFactor" : [0, 0, 0], "alphaMode" : "OPAQUE", "doubleSided" : true}, {"name" : "Material.005", "pbrMetallicRoughness" : {"baseColorFactor" : [0.8000000715255737, 0.6914346814155579, 0.003702485468238592, 1], "metallicFactor" : 0, "roughnessFactor" : 0.5}, "emissiveFactor" : [0, 0, 0], "alphaMode" : "OPAQUE", "doubleSided" : true}, {"name" : "Material.006", "pbrMetallicRoughness" : {"baseColorFactor" : [0.8000000715255737, 0.7079436182975769, 0.011510651558637619, 1], "metallicFactor" : 0, "roughnessFactor" : 0.5}, "emissiveFactor" : [0, 0, 0], "alphaMode" : "OPAQUE", "doubleSided" : true}], "meshes" : [{"primitives" : [{"attributes" : {"POSITION" : 1, "NORMAL" : 2, "TEXCOORD_0" : 3}, "indices" : 0, "material" : 0, "mode" : 4}]}, {"primitives" : [{"attributes" : {"POSITION" : 5, "NORMAL" : 6, "TEXCOORD_0" : 7}, "indices" : 4, "mode" : 4}]}, {"primitives" : [{"attributes" : {"POSITION" : 9, "NORMAL" : 10, "TEXCOORD_0" : 11}, "indices" : 8, "material" : 1, "mode" : 4}]}, {"primitives" : [{"attributes" : {"POSITION" : 13, "NORMAL" : 14, "TEXCOORD_0" : 15}, "indices" : 12, "material" : 2, "mode" : 4}]}, {"primitives" : [{"attributes" : {"POSITION" : 17, "NORMAL" : 18, "TEXCOORD_0" : 19}, "indices" : 16, "material" : 3, "mode" : 4}]}, {"primitives" : [{"attributes" : {"POSITION" : 21, "NORMAL" : 22, "TEXCOORD_0" : 23}, "indices" : 20, "material" : 4, "mode" : 4}]}, {"primitives" : [{"attributes" : {"POSITION" : 25, "NORMAL" : 26, "TEXCOORD_0" : 27}, "indices" : 24, "material" : 5, "mode" : 4}]}, {"primitives" : [{"attributes" : {"POSITION" : 29, "NORMAL" : 30, "TEXCOORD_0" : 31}, "indices" : 28, "material" : 6, "mode" : 4}]}, {"primitives" : [{"attributes" : {"POSITION" : 33, "NORMAL" : 34, "TEXCOORD_0" : 35}, "indices" : 32, "material" : 7, "mode" : 4}]}, {"primitives" : [{"attributes" : {"POSITION" : 37, "NORMAL" : 38, "TEXCOORD_0" : 39}, "indices" : 36, "material" : 8, "mode" : 4}]}, {"primitives" : [{"attributes" : {"POSITION" : 41, "NORMAL" : 42, "TEXCOORD_0" : 43}, "indices" : 40, "material" : 9, "mode" : 4}]}, {"primitives" : [{"attributes" : {"POSITION" : 45, "NORMAL" : 46, "TEXCOORD_0" : 47}, "indices" : 44, "material" : 10, "mode" : 4}]}], "nodes" : [{"matrix" : [-3.744618089489716E-07, -2.787027733470598, 0, 0, 2.119669722204809, -2.847963617365096E-07, 0, 0, 0, 0, 2.787027359008789, 0, -0.39813780784606934, 0, 0, 1], "mesh" : 0, "name" : "Outter membrane"}, {"matrix" : [4.227031230926514, 0, 0, 0, 0, 3.1802616119384766, 0, 0, 0, 0, 3.1802616119384766, 0, -2.49379301071167, 3.1821961402893066, 0, 1], "mesh" : 1, "name" : "Cube"}, {"matrix" : [1.0068604946136475, 0, 0, 0, 0, 0.9560887813568115, 0, 0, 0, 0, 0.9560887813568115, 0, 0.9464612603187561, 0.056402407586574554, -0.005300864577293396, 1], "mesh" : 2, "name" : "Matrix"}, {"matrix" : [-0.1231207475066185, 0, 0, 0, 0, -0.1231207475066185, 0, 0, 0, 0, -0.1231207475066185, 0, -1.894648551940918, -0.1265064924955368, 1.8236418962478638, 1], "mesh" : 3, "name" : "Sphere"}, {"matrix" : [-0.1231207475066185, 0, 0, 0, 0, -0.1231207475066185, 0, 0, 0, 0, -0.1231207475066185, 0, -1.894648551940918, -0.1265064924955368, -2.1841278076171875, 1], "mesh" : 4, "name" : "Sphere.001"}, {"matrix" : [-0.1231207475066185, 0, 0, 0, 0, -0.1231207475066185, 0, 0, 0, 0, -0.1231207475066185, 0, -0.12797783315181732, -0.1265064924955368, 2.0106256008148193, 1], "mesh" : 5, "name" : "Sphere.002"}, {"matrix" : [-0.1231207475066185, 0, 0, 0, 0, -0.1231207475066185, 0, 0, 0, 0, -0.1231207475066185, 0, -0.010616302490234375, -0.1265064924955368, -0.0007994174957275391, 1], "mesh" : 6, "name" : "Sphere.003"}, {"matrix" : [-0.1231207475066185, 0, 0, 0, 0, -0.1231207475066185, 0, 0, 0, 0, -0.1231207475066185, 0, 1.9713425636291504, -0.1265064924955368, -2.135366201400757, 1], "mesh" : 7, "name" : "Sphere.004"}, {"matrix" : [-0.1231207475066185, 0, 0, 0, 0, -0.1231207475066185, 0, 0, 0, 0, -0.1231207475066185, 0, 1.9713425636291504, -0.1265064924955368, 1.6899621486663818, 1], "mesh" : 8, "name" : "Sphere.005"}, {"matrix" : [-0.1231207475066185, 0, 0, 0, 0, -0.1231207475066185, 0, 0, 0, 0, -0.1231207475066185, 0, -1.1253639459609985, -0.1265064924955368, -0.8545106053352356, 1], "mesh" : 9, "name" : "Sphere.007"}, {"matrix" : [-1.3435885648505064E-07, -1.0000001343588565, 0, 0, 0.12951931607474096, -1.7402064862406496E-08, 0, 0, 0, 0, 0.22911100089550018, 0, -1.4446464776992798, -0.07559163123369217, 0, 1], "mesh" : 10, "name" : "Spiral.002"}, {"matrix" : [-1.3435885648505064E-07, -1.0000001343588565, 0, 0, 0.12951931607474096, -1.7402064862406496E-08, 0, 0, 0, 0, 0.22911100089550018, 0, 1.4070543050765991, -0.07559163123369217, 0, 1], "mesh" : 11, "name" : "Spiral.001"}], "scene" : 0, "scenes" : [{"nodes" : [0, 1, 2, 3, 4, 5, 6, 7, 8, 9, 10, 11]}]}